<svg xmlns="http://www.w3.org/2000/svg" viewBox="0 0 87.16 102.47"><defs><style>.cls-1{fill:#fff;}</style></defs><title>Asset 10</title><g id="Layer_2" data-name="Layer 2"><g id="LOGO"><path class="cls-1" d="M43.21,55.21h.68c6.22-.1,11.24-2.29,15-6.47,8.17-9.21,6.81-25,6.66-26.5C65,10.93,59.63,5.52,55.22,3A23.53,23.53,0,0,0,43.8,0h-.36A23.56,23.56,0,0,0,32,2.91c-4.46,2.52-9.89,7.93-10.42,19.33-.15,1.5-1.51,17.29,6.66,26.5C32,52.92,37,55.11,43.21,55.21ZM27.27,22.77c0-.06,0-.13,0-.17C28,7.38,38.8,5.75,43.42,5.75h.26c5.73.13,15.46,2.46,16.12,16.85a.44.44,0,0,0,0,.17c0,.15,1.51,14.58-5.24,22.17-2.67,3-6.24,4.5-10.93,4.54h-.21c-4.67,0-8.25-1.52-10.9-4.54C25.81,37.39,27.25,22.9,27.27,22.77Z"/><path class="cls-1" d="M87.15,81.4v-.07c0-.16,0-.33,0-.53-.12-4.2-.4-14-9.61-17.16l-.21-.07a60.93,60.93,0,0,1-17.61-8,2.86,2.86,0,1,0-3.29,4.69,65.65,65.65,0,0,0,19.37,8.85c5,1.76,5.5,7,5.65,11.88a4.44,4.44,0,0,0,0,.53A38.64,38.64,0,0,1,81,88.06c-3.44,2-16.91,8.7-37.41,8.7S9.62,90,6.16,88a36.68,36.68,0,0,1-.45-6.56c0-.17,0-.34,0-.53.14-4.84.7-10.12,5.64-11.88a66.81,66.81,0,0,0,19.37-8.85,2.86,2.86,0,0,0-3.29-4.69,60.31,60.31,0,0,1-17.61,8l-.21.07C.43,66.78.15,76.6,0,80.78a4.52,4.52,0,0,1,0,.53v.07c0,1.1,0,6.77,1.08,9.61a2.72,2.72,0,0,0,1.1,1.34c.64.42,15.89,10.14,41.42,10.14S84.4,92.73,85,92.33A2.91,2.91,0,0,0,86.14,91C87.2,88.17,87.18,82.5,87.15,81.4Z"/></g></g></svg>