<?xml version="1.0" encoding="iso-8859-1"?>
<!-- Generator: Adobe Illustrator 19.0.0, SVG Export Plug-In . SVG Version: 6.00 Build 0)  -->
<svg version="1.1" id="Capa_1" xmlns="http://www.w3.org/2000/svg" xmlns:xlink="http://www.w3.org/1999/xlink" x="0px" y="0px"
	 viewBox="0 0 512 512" style="enable-background:new 0 0 512 512;" xml:space="preserve">
<g>
	<g>
		<g>
			<path d="M382.889,373.296c-18.793-34.985-22.358-76.162-9.856-113.856l24.384-73.168l24.96-16.672
				c24.156-16.085,32.541-47.648,19.552-73.6l-6.16-12.304C422.798,57.7,416.023,29.053,415.977,0h-32
				c0.039,34.048,7.963,67.624,23.152,98.096l6.16,12.288c1.762,3.545,2.682,7.449,2.688,11.408
				c0.013,8.526-4.246,16.492-11.344,21.216L379.177,160h-246.4l-25.456-16.992c-7.098-4.724-11.357-12.69-11.344-21.216
				c0.008-3.953,0.928-7.852,2.688-11.392l6.16-12.288C120.016,67.635,127.94,34.053,127.977,0h-32
				c-0.029,29.078-6.799,57.754-19.776,83.776l-6.16,12.304c-12.936,25.929-4.565,57.433,19.536,73.52l24.96,16.64l24.384,73.168
				c12.502,37.694,8.937,78.871-9.856,113.856l-37.056,68.8l-1.088,2.528C83.665,466.325,79.969,489.088,79.977,512h32
				c-0.001-19.017,2.995-37.916,8.88-56l36.384-67.52c22.967-42.775,27.324-93.115,12.048-139.2L150.185,192h211.584l-19.104,57.312
				c-15.276,46.085-10.919,96.425,12.048,139.2L391.097,456c5.885,18.084,8.881,36.983,8.88,56h32
				c0.009-22.918-3.686-45.686-10.944-67.424L382.889,373.296z"/>
			<path d="M255.977,128c52.997-0.053,95.947-43.003,96-96V0h-32v32c0,35.346-28.654,64-64,64c-35.346,0-64-28.654-64-64V0h-32v32
				C160.03,84.997,202.979,127.947,255.977,128z"/>
			<rect x="239.977" y="352" width="32" height="32"/>
		</g>
	</g>
</g>
<g>
</g>
<g>
</g>
<g>
</g>
<g>
</g>
<g>
</g>
<g>
</g>
<g>
</g>
<g>
</g>
<g>
</g>
<g>
</g>
<g>
</g>
<g>
</g>
<g>
</g>
<g>
</g>
<g>
</g>
</svg>
