<svg xmlns="http://www.w3.org/2000/svg" viewBox="0 0 80.81 120.26"><defs><style>.cls-1{fill:none;stroke:#fff;stroke-miterlimit:10;stroke-width:3px;}</style></defs><title>Asset 7</title><g id="Layer_2" data-name="Layer 2"><g id="LOGO"><path class="cls-1" d="M8509.7,4066.81h-19.45a3.33,3.33,0,0,0-3.24,3.24v19.45a3.11,3.11,0,0,0,1,2.27,3.07,3.07,0,0,0,2.26,1h19.45a3.31,3.31,0,0,0,3.24-3.24v-19.45a3.31,3.31,0,0,0-3.24-3.24Z" transform="translate(-8461.26 -3973.98)"/><path class="cls-1" d="M8537.11,3995.81a34.84,34.84,0,0,0-8.92-10.73,45.64,45.64,0,0,0-12.3-7,37.66,37.66,0,0,0-13.55-2.61q-25.6,0-39.07,22.4a3.35,3.35,0,0,0,.84,4.46l13.81,10.52a4,4,0,0,0,2.11.68,3.27,3.27,0,0,0,2.61-1.35q6.06-7.58,9-9.68a15.87,15.87,0,0,1,9.09-2.44,15.55,15.55,0,0,1,9.05,2.69q3.91,2.68,3.91,6.23a9.47,9.47,0,0,1-2.1,6.4,20.61,20.61,0,0,1-7.07,4.71,35.5,35.5,0,0,0-12,9.14q-5.48,6.18-5.48,13.17v3.79a6.34,6.34,0,0,0,.89,3.16,2.53,2.53,0,0,0,2.15,1.56h20.2a2.94,2.94,0,0,0,2.36-1.31,4.42,4.42,0,0,0,1-2.73c0-1.4.77-3.29,2.31-5.64a16.57,16.57,0,0,1,5.77-5.48q3.28-1.85,5.14-3a41.59,41.59,0,0,0,4.84-3.66,24,24,0,0,0,4.63-5,28.32,28.32,0,0,0,4.25-14.94A27.61,27.61,0,0,0,8537.11,3995.81Z" transform="translate(-8461.26 -3973.98)"/></g></g></svg>