<svg xmlns="http://www.w3.org/2000/svg" viewBox="0 0 136.83 104.13"><defs><style>.cls-1{fill:#f47d20;}</style></defs><title>Asset 4</title><g id="Layer_2" data-name="Layer 2"><g id="LOGO"><path class="cls-1" d="M120.13,0H16.73A16.74,16.74,0,0,0,0,16.73V87.4a16.74,16.74,0,0,0,16.73,16.73H120.1A16.74,16.74,0,0,0,136.83,87.4V16.76A16.72,16.72,0,0,0,120.13,0Zm9.08,87.4a9.09,9.09,0,0,1-9.08,9.09H16.73A9.1,9.1,0,0,1,7.64,87.4V16.76a9.1,9.1,0,0,1,9.09-9.09H120.1a9.1,9.1,0,0,1,9.09,9.09V87.4Z"/><path class="cls-1" d="M86.29,51.19l33.47-30a3.83,3.83,0,1,0-5.13-5.69L68.49,56.91l-9-8a.14.14,0,0,1,0-.09,5.43,5.43,0,0,0-.63-.54L22.17,15.46a3.83,3.83,0,1,0-5.1,5.72L50.93,51.44,17.21,83A3.84,3.84,0,0,0,17,88.42a4,4,0,0,0,2.81,1.22,3.81,3.81,0,0,0,2.6-1l34.23-32L66,64.89a3.81,3.81,0,0,0,5.09,0l9.54-8.55,34,32.33a3.82,3.82,0,1,0,5.27-5.54Z"/></g></g></svg>