<svg xmlns="http://www.w3.org/2000/svg" viewBox="0 0 86.64 162.59"><defs><style>.cls-1{fill:#fff;}</style></defs><title>Asset 8</title><g id="Layer_2" data-name="Layer 2"><g id="LOGO"><g id="O"><path class="cls-1" d="M73.1,102.76a99,99,0,0,1-1.35,15.38,106.36,106.36,0,0,1-3.42,14.36A54,54,0,0,1,57,152.66a28.06,28.06,0,0,1-12.59,8.5,22.87,22.87,0,0,1-8.27,1.4,27.58,27.58,0,0,1-13.13-4c-5.15-3.26-8.92-7.76-12.16-12.81a50.69,50.69,0,0,1-6-13c-1.35-4.55-2.51-9.18-3.41-13.84A88.37,88.37,0,0,1,.21,96.51c.18-3,.62-5.92,1.07-8.86A95.92,95.92,0,0,1,4.72,73.07,56.51,56.51,0,0,1,9.23,62.54a48.57,48.57,0,0,1,7.19-10.09c4.08-4.26,8.8-7.55,14.76-8.78a21.16,21.16,0,0,1,7.91-.54,27.15,27.15,0,0,1,10.24,3.42,31.61,31.61,0,0,1,7.18,5.77,78.05,78.05,0,0,1,5.58,7.35,48.14,48.14,0,0,1,6.12,13.09,115.34,115.34,0,0,1,3,11.74c.72,3.66,1.12,7.39,1.52,11.1C73,98,73,100.38,73.1,102.76ZM8,102.76a95.11,95.11,0,0,0,1.34,15.62,68.43,68.43,0,0,0,6.51,20,35.88,35.88,0,0,0,9.52,12,18,18,0,0,0,10.74,4.1,18,18,0,0,0,12.17-4.63,37.77,37.77,0,0,0,9.77-13.33c4.29-9.1,6.22-18.78,6.79-28.76a90.23,90.23,0,0,0-1.33-21.52,66.58,66.58,0,0,0-6.79-20A33.7,33.7,0,0,0,47,54.62c-5.47-3.93-11.34-4.87-17.6-2a23.54,23.54,0,0,0-7.89,6.12,47.54,47.54,0,0,0-8.77,15.5A84.55,84.55,0,0,0,8,102.76Z"/></g><g id="leafs"><path class="cls-1" d="M26.83,0c1.57,1.18,3.23,2.26,4.7,3.56a26.55,26.55,0,0,1,9.12,15.75,20.45,20.45,0,0,1-3.2,15.18,3.32,3.32,0,0,1-.26.36s-.08,0-.17.1a30.71,30.71,0,0,1-6.51-5.15,26.45,26.45,0,0,1-7.46-14.73c-.07-.43-.15-.86-.22-1.3a24.3,24.3,0,0,1,.06-3.42c.06-.31.07-.68.16-1.28A21.77,21.77,0,0,1,26.68,0Z"/><path class="cls-1" d="M86.64,4.75a45,45,0,0,1-10,19A39.74,39.74,0,0,1,55.41,36.63a32.92,32.92,0,0,1-13.73.21l-.3-.1a1.53,1.53,0,0,1,0-.43c3.89-13.8,12-24,25.39-29.68a32.91,32.91,0,0,1,19.29-2C86.23,4.63,86.39,4.68,86.64,4.75Z"/></g></g></g></svg>