<?xml version="1.0" encoding="iso-8859-1"?>
<!-- Generator: Adobe Illustrator 19.0.0, SVG Export Plug-In . SVG Version: 6.00 Build 0)  -->
<svg version="1.1" id="Capa_1" xmlns="http://www.w3.org/2000/svg" xmlns:xlink="http://www.w3.org/1999/xlink" x="0px" y="0px"
	 viewBox="0 0 480 480" style="enable-background:new 0 0 480 480;" xml:space="preserve">
<g>
	<g>
		<g>
			<path d="M173.656,42.344c-3.124-3.123-8.188-3.123-11.312,0l-112,112c-3.178,3.069-3.266,8.134-0.197,11.312
				c3.069,3.178,8.134,3.266,11.312,0.197c0.067-0.064,0.132-0.13,0.197-0.197l112-112
				C176.779,50.532,176.779,45.468,173.656,42.344z"/>
			<path d="M72,96c13.255,0,24-10.745,24-24S85.255,48,72,48S48,58.745,48,72S58.745,96,72,96z M72,64c4.418,0,8,3.582,8,8
				s-3.582,8-8,8s-8-3.582-8-8S67.582,64,72,64z"/>
			<path d="M152,112c-13.255,0-24,10.745-24,24s10.745,24,24,24s24-10.745,24-24S165.255,112,152,112z M152,144
				c-4.418,0-8-3.582-8-8s3.582-8,8-8s8,3.582,8,8S156.418,144,152,144z"/>
			<path d="M472,176h-72.72c-3.919-23.066-23.883-39.957-47.28-40V24c0-13.255-10.745-24-24-24H24C10.745,0,0,10.745,0,24v176
				c0,13.255,10.745,24,24,24h120v24c0,4.418,3.582,8,8,8h16v216c0,4.418,3.582,8,8,8h272c4.418,0,8-3.582,8-8V256h16
				c4.418,0,8-3.582,8-8v-64C480,179.582,476.418,176,472,176z M338.88,154.984c0.648-0.296,1.28-0.608,1.952-0.864
				c1.416-0.527,2.868-0.955,4.344-1.28c0.2-0.048,0.384-0.12,0.584-0.16c2.05-0.449,4.142-0.677,6.24-0.68
				c14.586,0.017,27.321,9.881,30.984,24h-61.848c0.16-0.608,0.296-1.232,0.496-1.824c0.2-0.592,0.336-1.096,0.544-1.6
				c0.468-1.155,1.002-2.283,1.6-3.376c0.208-0.384,0.368-0.8,0.584-1.168c0.813-1.401,1.73-2.738,2.744-4
				c0.352-0.448,0.76-0.8,1.144-1.256c0.698-0.809,1.44-1.578,2.224-2.304c0.536-0.496,1.104-0.944,1.672-1.4
				c0.72-0.576,1.456-1.12,2.224-1.6c0.632-0.424,1.28-0.8,1.944-1.208C337.112,155.792,338.008,155.376,338.88,154.984z M304,464
				H184V256h120V464z M304,240H160v-48h144V240z M241.016,176c4.418-17.112,21.872-27.403,38.984-22.984
				c11.272,2.91,20.074,11.712,22.984,22.984H241.016z M315.064,153.416c-0.32,0.392-0.584,0.8-0.896,1.224
				c-0.744,0.952-1.48,1.912-2.144,2.92c-14.565-22.107-44.295-28.221-66.402-13.656c-11.125,7.329-18.697,18.958-20.902,32.096H152
				c-4.418,0-8,3.582-8,8v24H24c-4.418,0-8-3.582-8-8V24c0-4.418,3.582-8,8-8h304c4.418,0,8,3.582,8,8v114.728
				c-0.32,0.112-0.6,0.28-0.92,0.4c-0.728,0.272-1.416,0.608-2.128,0.92c-1.621,0.693-3.2,1.481-4.728,2.36
				c-0.728,0.416-1.44,0.8-2.144,1.288c-1.534,0.999-3.011,2.084-4.424,3.248c-0.496,0.416-1.024,0.8-1.512,1.216
				C318.319,149.78,316.621,151.537,315.064,153.416z M440,464H320V256h120V464z M464,240H320v-48h144V240z"/>
			<path d="M312,32h-64c-4.418,0-8,3.582-8,8s3.582,8,8,8h64c4.418,0,8-3.582,8-8S316.418,32,312,32z"/>
			<path d="M312,64h-64c-4.418,0-8,3.582-8,8s3.582,8,8,8h64c4.418,0,8-3.582,8-8S316.418,64,312,64z"/>
		</g>
	</g>
</g>
<g>
</g>
<g>
</g>
<g>
</g>
<g>
</g>
<g>
</g>
<g>
</g>
<g>
</g>
<g>
</g>
<g>
</g>
<g>
</g>
<g>
</g>
<g>
</g>
<g>
</g>
<g>
</g>
<g>
</g>
</svg>
