<svg xmlns="http://www.w3.org/2000/svg" viewBox="0 0 189.51 346.9"><defs><style>.cls-1{fill:#231f20;}</style></defs><title>Asset 9</title><g id="Layer_2" data-name="Layer 2"><g id="LOGO"><g id="O"><path class="cls-1" d="M159.9,216a216.77,216.77,0,0,1-3,33.65,232.57,232.57,0,0,1-7.49,31.41c-5.21,16.38-13.21,31.29-24.78,44.09-7.61,8.42-16.5,15.22-27.54,18.6-5.87,1.81-11.86,3.48-18.08,3.05-10.23-.7-19.88-3.23-28.72-8.82-11.27-7.12-19.52-17-26.61-28a111.44,111.44,0,0,1-13.14-28.39c-3-9.95-5.49-20.08-7.47-30.27C0,235.18-.55,218.78.46,202.37c.4-6.49,1.36-13,2.33-19.4a212.36,212.36,0,0,1,7.54-31.89,124.27,124.27,0,0,1,9.85-23A106,106,0,0,1,35.92,106c8.93-9.32,19.25-16.51,32.28-19.21,5.77-1.19,11.52-2.16,17.31-1.18,7.81,1.33,15.53,3.14,22.38,7.49,5.72,3.62,11.29,7.5,15.72,12.61a177.15,177.15,0,0,1,12.22,16.08,106.28,106.28,0,0,1,13.38,28.63,254.77,254.77,0,0,1,6.53,25.68c1.59,8,2.45,16.17,3.33,24.3C159.63,205.57,159.64,210.81,159.9,216ZM17.58,216a205.72,205.72,0,0,0,2.91,34.15c2.69,15.28,7,30,14.24,43.84,5.27,10.1,11.75,19.26,20.84,26.33,6.9,5.38,14.62,8.77,23.48,9,10.21.24,18.93-3.71,26.63-10.12,9.53-7.94,16.14-18.06,21.37-29.15,9.39-19.91,13.61-41.08,14.85-62.92A197,197,0,0,0,139,180.07c-2.81-15.32-7.37-30.07-14.85-43.8-5.4-9.91-12-18.9-21.26-25.55-12-8.59-24.8-10.65-38.48-4.42a51.6,51.6,0,0,0-17.28,13.4c-8.75,10-14.69,21.53-19.18,33.89C20.61,173.76,17.73,194.67,17.58,216Z"/></g><g id="leafs"><path class="cls-1" d="M58.69,0C62.13,2.58,65.76,5,69,7.78,79.45,17,86.57,28.31,88.91,42.24a44.74,44.74,0,0,1-7,33.21,8.75,8.75,0,0,1-.58.78c-.06.08-.17.11-.37.23A66.9,66.9,0,0,1,66.75,65.19C58,56.11,52.27,45.53,50.41,33c-.14-.95-.31-1.9-.47-2.85a53.32,53.32,0,0,1,.14-7.49c.11-.68.14-1.48.34-2.8A47.4,47.4,0,0,1,58.37,0Z"/><path class="cls-1" d="M189.51,10.39A98.19,98.19,0,0,1,167.76,52c-12.58,14.19-27.93,23.92-46.56,28.15a72,72,0,0,1-30,.47,5,5,0,0,1-.65-.22,3.68,3.68,0,0,1,0-.94c8.52-30.19,26.29-52.57,55.55-64.93a71.92,71.92,0,0,1,42.18-4.44C188.62,10.13,189,10.25,189.51,10.39Z"/></g></g></g></svg>