<svg xmlns="http://www.w3.org/2000/svg" viewBox="0 0 99.21 99.21"><defs><style>.cls-1{fill:#fff;}</style></defs><title>Asset 5</title><g id="Layer_2" data-name="Layer 2"><g id="LOGO"><path class="cls-1" d="M98.74,35.67l-16-16a1.59,1.59,0,0,0-.84-.44L64.3,16a1.61,1.61,0,0,0-1.87,1.29,2.64,2.64,0,0,0,0,.28,9.65,9.65,0,0,1-.14,1.52L51.21,16.35v-.51A8,8,0,1,0,41.61,8h3.2a4.8,4.8,0,1,1,4.8,4.8A1.6,1.6,0,0,0,48,14.4v2L36.94,19.12a9.64,9.64,0,0,1-.13-1.52,1.61,1.61,0,0,0-.58-1.23A1.55,1.55,0,0,0,34.92,16l-17.6,3.2a1.62,1.62,0,0,0-.85.44l-16,16a1.62,1.62,0,0,0,0,2.27l12.8,12.8a1.61,1.61,0,0,0,2.26,0l3.67-3.67V57.61H8A8,8,0,0,0,3.25,72,7.93,7.93,0,0,0,1.53,83.09a7.8,7.8,0,0,0,1.72,1.72A8,8,0,0,0,8,99.21H65.61a1.61,1.61,0,0,0,1.13-.47l12.8-12.8A1.6,1.6,0,0,0,80,84.81h0V47.07l3.67,3.67a1.61,1.61,0,0,0,2.26,0l12.8-12.8A1.6,1.6,0,0,0,98.74,35.67ZM49.61,19.25l11.63,2.91A13,13,0,0,1,49.61,28.6,13,13,0,0,1,38,22.16ZM3.2,65.61A4.8,4.8,0,0,1,8,60.81H43.21a4.8,4.8,0,0,1,0,9.6H8A4.8,4.8,0,0,1,3.2,65.61Zm0,12.8A4.8,4.8,0,0,1,8,73.61H43.21a4.8,4.8,0,0,1,0,9.6H8A4.8,4.8,0,0,1,3.2,78.41Zm40,17.6H8a4.8,4.8,0,1,1,0-9.6H43.21a4.8,4.8,0,0,1,0,9.6Zm24-2.26V86.41h7.34Zm17.6-46.41L74.74,37.27l-2.26,2.27,4.33,4.33V83.21H65.61a1.6,1.6,0,0,0-1.6,1.6V96H49.57a7.9,7.9,0,0,0-1.43-11.07L48,84.81a7.94,7.94,0,0,0,1.72-11.08A7.8,7.8,0,0,0,48,72a8,8,0,0,0-4.76-14.4H22.4V43.87l4.34-4.33-2.27-2.27L14.4,47.34,3.86,36.8,18.38,22.29,33.74,19.5c1,6.93,7.76,12.3,15.86,12.3s14.82-5.37,15.86-12.3l15.37,2.79L95.35,36.8Z"/><rect class="cls-1" x="6.4" y="64.01" width="38.4" height="3.2"/><rect class="cls-1" x="6.4" y="76.81" width="36.8" height="3.2"/><rect class="cls-1" x="6.4" y="89.61" width="36.8" height="3.2"/></g></g></svg>